<?xml version="1.0" standalone="no"?>
<!DOCTYPE svg PUBLIC "-//W3C//DTD SVG 20010904//EN"
 "http://www.w3.org/TR/2001/REC-SVG-20010904/DTD/svg10.dtd">
<svg version="1.0" xmlns="http://www.w3.org/2000/svg"
 width="300.000000pt" height="289.000000pt" viewBox="0 0 300.000000 289.000000"
 preserveAspectRatio="xMidYMid meet">
<metadata>
Created by potrace 1.10, written by Peter Selinger 2001-2011
</metadata>
<g transform="translate(0.000000,289.000000) scale(0.100000,-0.100000)"
fill="#47b68c" stroke="none">
<path d="M669 2331 l-249 -250 2 -322 c2 -233 6 -323 15 -326 6 -2 159 142
340 321 l328 325 417 1 417 0 73 -59 c40 -32 83 -70 96 -84 l24 -25 -79 -67
c-132 -114 -91 -105 -464 -105 l-326 0 -134 -138 c-74 -76 -240 -248 -369
-383 -129 -134 -254 -264 -278 -288 -55 -55 -68 -86 -48 -115 8 -11 142 -151
299 -311 250 -255 286 -288 300 -277 14 12 17 53 19 328 l3 314 145 145 c80
80 165 161 189 180 l44 35 344 0 344 0 112 108 c62 59 169 163 240 231 l127
124 0 204 0 205 -237 239 -237 239 -604 0 -604 0 -249 -249z"/>
<path d="M2357 1073 l-227 -228 -413 -5 -412 -5 -3 -234 c-2 -167 1 -238 9
-248 10 -11 86 -13 464 -11 l452 3 44 37 c24 20 108 99 187 175 l142 138 0
303 c0 166 -3 302 -8 302 -4 0 -109 -102 -235 -227z"/>
</g>
</svg>
